<?xml version="1.0" encoding="UTF-8" standalone="no"?>
<svg
   xmlns:dc="http://purl.org/dc/elements/1.1/"
   xmlns:cc="http://creativecommons.org/ns#"
   xmlns:rdf="http://www.w3.org/1999/02/22-rdf-syntax-ns#"
   xmlns:svg="http://www.w3.org/2000/svg"
   xmlns="http://www.w3.org/2000/svg"
   xmlns:xlink="http://www.w3.org/1999/xlink"
   xmlns:sodipodi="http://sodipodi.sourceforge.net/DTD/sodipodi-0.dtd"
   xmlns:inkscape="http://www.inkscape.org/namespaces/inkscape"
   aria-label="Python"
   role="img"
   viewBox="0 0 512 512"
   version="1.1"
   id="svg875"
   sodipodi:docname="2166632351579517870.svg"
   inkscape:version="0.92.5 (2060ec1f9f, 2020-04-08)">
  <metadata
     id="metadata881">
    <rdf:RDF>
      <cc:Work
         rdf:about="">
        <dc:format>image/svg+xml</dc:format>
        <dc:type
           rdf:resource="http://purl.org/dc/dcmitype/StillImage" />
      </cc:Work>
    </rdf:RDF>
  </metadata>
  <defs
     id="defs879" />
  <sodipodi:namedview
     pagecolor="#ffffff"
     bordercolor="#666666"
     borderopacity="1"
     objecttolerance="10"
     gridtolerance="10"
     guidetolerance="10"
     inkscape:pageopacity="0"
     inkscape:pageshadow="2"
     inkscape:window-width="1920"
     inkscape:window-height="1015"
     id="namedview877"
     showgrid="false"
     inkscape:zoom="1.6015625"
     inkscape:cx="256"
     inkscape:cy="256"
     inkscape:window-x="0"
     inkscape:window-y="41"
     inkscape:window-maximized="1"
     inkscape:current-layer="svg875" />
  <g
     id="g871"
     fill="#5a9fd4">
    <path
       id="p"
       d="M254 64c-16 0-31 1-44 4-39 7-46 21-46 47v35h92v12H130c-27 0-50 16-58 46-8 35-8 57 0 93 7 28 23 47 49 47h32v-42c0-30 26-57 57-57h91c26 0 46-21 46-46v-88c0-24-21-43-46-47-15-3-32-4-47-4zm-50 28c10 0 17 8 17 18 0 9-7 17-17 17-9 0-17-8-17-17 0-10 8-18 17-18z" />
  </g>
  <use
     xlink:href="#p"
     transform="rotate(180,256,255)"
     id="use873"
     fill="#ffd43b" />
</svg>
