<?xml version="1.0" encoding="UTF-8" standalone="no"?>
<!-- Created with Inkscape (http://www.inkscape.org/) -->

<svg
   xmlns:dc="http://purl.org/dc/elements/1.1/"
   xmlns:cc="http://creativecommons.org/ns#"
   xmlns:rdf="http://www.w3.org/1999/02/22-rdf-syntax-ns#"
   xmlns:svg="http://www.w3.org/2000/svg"
   xmlns="http://www.w3.org/2000/svg"
   xmlns:sodipodi="http://sodipodi.sourceforge.net/DTD/sodipodi-0.dtd"
   xmlns:inkscape="http://www.inkscape.org/namespaces/inkscape"
   version="1.1"
   id="svg4790"
   width="312"
   height="310.66666"
   viewBox="0 0 312 310.66666"
   sodipodi:docname="logo2.svg"
   inkscape:version="0.92.5 (2060ec1f9f, 2020-04-08)">
  <metadata
     id="metadata4796">
    <rdf:RDF>
      <cc:Work
         rdf:about="">
        <dc:format>image/svg+xml</dc:format>
        <dc:type
           rdf:resource="http://purl.org/dc/dcmitype/StillImage" />
        <dc:title />
      </cc:Work>
    </rdf:RDF>
  </metadata>
  <defs
     id="defs4794" />
  <sodipodi:namedview
     pagecolor="#ffffff"
     bordercolor="#666666"
     borderopacity="1"
     objecttolerance="10"
     gridtolerance="10"
     guidetolerance="10"
     inkscape:pageopacity="0"
     inkscape:pageshadow="2"
     inkscape:window-width="1920"
     inkscape:window-height="1015"
     id="namedview4792"
     showgrid="false"
     inkscape:zoom="0.75965668"
     inkscape:cx="156"
     inkscape:cy="155.33333"
     inkscape:window-x="0"
     inkscape:window-y="41"
     inkscape:window-maximized="1"
     inkscape:current-layer="g5369" />
  <g
     id="g5369"
     transform="translate(1.3163818,2)"
     clip-path="none">
    <path
       style="fill:#cdcdcd;stroke-width:1.33333337"
       d="M 84.100915,271.04753 C 87.315209,267.4487 171.19952,178.18345 182.25196,166.6004 l 5.78836,-6.06627 -13.33507,-7.71361 -13.33508,-7.71362 10.31492,-13.22474 c 5.6732,-7.27361 11.51491,-15.22761 12.98158,-17.67556 1.46666,-2.44795 4.46666,-6.26347 6.66666,-8.47894 2.2,-2.21546 10.3,-12.172387 18,-22.12649 15.86726,-20.512246 15.44046,-20.394481 20.76366,-5.729254 5.78614,15.940689 3.62221,35.354594 -5.4726,49.097794 -1.81008,2.73521 -3.29106,5.58598 -3.29106,6.33503 0,0.74906 -0.51869,1.36192 -1.15265,1.36192 -0.63396,0 -3.18396,1.79042 -5.66667,3.97871 -2.4827,2.18828 -4.96401,3.98828 -5.51401,4 -2.73456,0.0583 -0.39409,4.27711 4.54127,8.18599 6.8451,5.42141 14.82125,17.5379 17.81908,27.0688 3.56274,11.32689 2.37904,27.12889 -2.85403,38.09984 -7.98892,16.74852 -21.48901,27.70479 -38.60503,31.33073 -5.92729,1.25565 -17.04525,1.96458 -31.04324,1.97945 l -21.80861,0.0231 -27.08374,12.66666 c -14.896055,6.96667 -27.536768,12.66667 -28.090471,12.66667 -0.553704,0 0.447855,-1.62861 2.225686,-3.61913 z"
       id="path5373"
       inkscape:connector-curvature="0" />
    <path
       style="fill:#357aef;stroke-width:1.33333337"
       d="M 87.543988,247.09954 C 87.061461,246.61701 86.666667,200.12222 86.666667,143.77777 V 41.333332 h 62.758373 62.75837 l 13.40036,-3.396817 c 7.3702,-1.86825 13.62759,-3.169597 13.90531,-2.891882 0.55917,0.559174 -10.48155,10.390877 -22.82241,20.32323 -4.4,3.541272 -8.3,6.795588 -8.66667,7.231813 -0.56772,0.675417 -9.43005,8.167766 -19.28777,16.306161 -12.92938,10.674301 -47.26519,39.743983 -50.6911,42.916513 -1.47829,1.36896 -8.2378,6.98446 -15.02113,12.47889 -6.78333,5.49441 -12.31905,10.37436 -12.3016,10.8443 0.0174,0.46995 3.84974,3.45603 8.51619,6.63572 4.66644,3.1797 10.41106,7.76903 12.7658,10.19851 l 4.28136,4.41724 -19.46421,32.73883 c -10.70531,18.00634 -19.464207,33.36701 -19.464207,34.13482 0,0.7678 -0.575914,1.396 -1.27981,1.396 -0.703898,0 -2.001004,2.40712 -2.882462,5.34917 -1.658578,5.53584 -4.100677,8.6101 -5.627073,7.08371 z"
       id="path5371"
       inkscape:connector-curvature="0" />
  </g>
</svg>
